<svg width="71" height="22" viewBox="0 0 71 22" fill="none" xmlns="http://www.w3.org/2000/svg">
<path d="M31.6335 19.22C30.5335 19.22 29.5142 19.022 28.5755 18.626C27.6369 18.2153 26.8155 17.6507 26.1115 16.932C25.4222 16.2133 24.8869 15.3773 24.5055 14.424C24.1242 13.4707 23.9335 12.4513 23.9335 11.366C23.9335 10.266 24.1242 9.23933 24.5055 8.286C24.8869 7.33267 25.4222 6.504 26.1115 5.8C26.8155 5.08133 27.6295 4.524 28.5535 4.128C29.4922 3.71733 30.5115 3.512 31.6115 3.512C32.8142 3.512 33.8702 3.71733 34.7795 4.128C35.6889 4.53867 36.4955 5.096 37.1995 5.8L35.7695 7.23C35.2855 6.68733 34.6915 6.262 33.9875 5.954C33.2982 5.646 32.5062 5.492 31.6115 5.492C30.8049 5.492 30.0642 5.63867 29.3895 5.932C28.7149 6.21067 28.1282 6.614 27.6295 7.142C27.1309 7.67 26.7422 8.29333 26.4635 9.012C26.1995 9.73067 26.0675 10.5153 26.0675 11.366C26.0675 12.2167 26.1995 13.0013 26.4635 13.72C26.7422 14.4387 27.1309 15.062 27.6295 15.59C28.1282 16.118 28.7149 16.5287 29.3895 16.822C30.0642 17.1007 30.8049 17.24 31.6115 17.24C32.5649 17.24 33.3935 17.086 34.0975 16.778C34.8015 16.4553 35.3955 16.0227 35.8795 15.48L37.3095 16.888C36.6055 17.6213 35.7769 18.1933 34.8235 18.604C33.8849 19.0147 32.8215 19.22 31.6335 19.22ZM43.7 19.22C42.8494 19.22 42.0794 19.0293 41.39 18.648C40.7154 18.252 40.1874 17.7093 39.806 17.02C39.4247 16.3307 39.234 15.5313 39.234 14.622V8.55H41.214V14.534C41.214 15.106 41.3094 15.6047 41.5 16.03C41.7054 16.4407 41.9987 16.756 42.38 16.976C42.7614 17.196 43.2087 17.306 43.722 17.306C44.4994 17.306 45.108 17.064 45.548 16.58C45.988 16.0813 46.208 15.3993 46.208 14.534V8.55H48.188V14.622C48.188 15.5313 47.9974 16.3307 47.616 17.02C47.2347 17.7093 46.7067 18.252 46.032 18.648C45.372 19.0293 44.5947 19.22 43.7 19.22ZM55.6818 19.22C54.6404 19.22 53.7018 18.9853 52.8658 18.516C52.0298 18.032 51.3698 17.3793 50.8858 16.558C50.4018 15.7367 50.1598 14.8053 50.1598 13.764C50.1598 12.7373 50.3944 11.8133 50.8638 10.992C51.3478 10.1707 51.9931 9.52533 52.7998 9.056C53.6211 8.572 54.5378 8.33 55.5498 8.33C56.5178 8.33 57.3684 8.55 58.1018 8.99C58.8498 9.43 59.4291 10.0387 59.8398 10.816C60.2651 11.5933 60.4778 12.4733 60.4778 13.456C60.4778 13.6027 60.4704 13.764 60.4558 13.94C60.4411 14.1013 60.4118 14.292 60.3678 14.512H51.5458V12.862H59.3118L58.5858 13.5C58.5858 12.796 58.4611 12.202 58.2118 11.718C57.9624 11.2193 57.6104 10.838 57.1558 10.574C56.7011 10.2953 56.1511 10.156 55.5058 10.156C54.8311 10.156 54.2371 10.3027 53.7238 10.596C53.2104 10.8893 52.8144 11.3 52.5358 11.828C52.2571 12.356 52.1178 12.9793 52.1178 13.698C52.1178 14.4313 52.2644 15.0767 52.5578 15.634C52.8511 16.1767 53.2691 16.602 53.8118 16.91C54.3544 17.2033 54.9778 17.35 55.6818 17.35C56.2684 17.35 56.8038 17.2473 57.2878 17.042C57.7864 16.8367 58.2118 16.5287 58.5638 16.118L59.8398 17.416C59.3411 18.0027 58.7251 18.45 57.9918 18.758C57.2731 19.066 56.5031 19.22 55.6818 19.22ZM65.9587 19.22C65.372 19.22 64.8147 19.1467 64.2867 19C63.7734 18.8387 63.2967 18.6187 62.8567 18.34C62.4167 18.0467 62.0354 17.702 61.7127 17.306L62.9887 16.03C63.37 16.4993 63.81 16.8513 64.3087 17.086C64.8074 17.306 65.3647 17.416 65.9807 17.416C66.5967 17.416 67.0734 17.3133 67.4107 17.108C67.748 16.888 67.9167 16.5873 67.9167 16.206C67.9167 15.8247 67.7774 15.5313 67.4987 15.326C67.2347 15.106 66.89 14.93 66.4647 14.798C66.0394 14.6513 65.5847 14.512 65.1007 14.38C64.6314 14.2333 64.184 14.05 63.7587 13.83C63.3334 13.61 62.9814 13.3093 62.7027 12.928C62.4387 12.5467 62.3067 12.0407 62.3067 11.41C62.3067 10.7793 62.4607 10.2367 62.7687 9.782C63.0767 9.31267 63.502 8.95333 64.0447 8.704C64.602 8.45467 65.2694 8.33 66.0467 8.33C66.868 8.33 67.594 8.47667 68.2247 8.77C68.87 9.04867 69.398 9.474 69.8087 10.046L68.5327 11.322C68.2394 10.9407 67.8727 10.6473 67.4327 10.442C67.0074 10.2367 66.5234 10.134 65.9807 10.134C65.4087 10.134 64.9687 10.2367 64.6607 10.442C64.3674 10.6327 64.2207 10.904 64.2207 11.256C64.2207 11.608 64.3527 11.8793 64.6167 12.07C64.8807 12.2607 65.2254 12.422 65.6507 12.554C66.0907 12.686 66.5454 12.8253 67.0147 12.972C67.484 13.104 67.9314 13.2873 68.3567 13.522C68.782 13.7567 69.1267 14.072 69.3907 14.468C69.6694 14.864 69.8087 15.3847 69.8087 16.03C69.8087 17.0127 69.4567 17.79 68.7527 18.362C68.0634 18.934 67.132 19.22 65.9587 19.22Z" fill="#faf9f7"/>
<path d="M1 11.1005L12 11.1005" stroke="#b8860b" stroke-width="2" stroke-linecap="round"/>
<path d="M8.89953 18C9.81879 18 10.729 17.8189 11.5783 17.4672C12.4276 17.1154 13.1993 16.5998 13.8493 15.9498C14.4993 15.2997 15.0149 14.5281 15.3667 13.6788C15.7185 12.8295 15.8995 11.9193 15.8995 11C15.8995 10.0807 15.7185 9.1705 15.3667 8.32122C15.0149 7.47194 14.4993 6.70026 13.8493 6.05025C13.1993 5.40024 12.4276 4.88463 11.5783 4.53284C10.729 4.18106 9.81879 4 8.89953 4" stroke="#faf9f7" stroke-width="2" stroke-linecap="round"/>
</svg>
